<svg width="316" height="55" viewBox="0 0 316 55" fill="none" xmlns="http://www.w3.org/2000/svg">
<path d="M0.742676 54.1331V18.5748H10.218V23.4567H10.3026C13.7994 19.862 18.0858 18.0647 23.1619 18.0647C28.9711 18.0647 33.0884 20.0321 35.5136 23.9668H35.6828C39.236 20.0321 44.1711 18.0647 50.4879 18.0647C55.1128 18.0647 58.6801 19.352 61.1899 21.9266C63.6997 24.5011 64.9547 28.3873 64.9547 33.585V54.1331H55.4794V35.6253C55.4794 28.8245 52.8003 25.4241 47.4423 25.4241C44.6787 25.4241 42.3804 26.4078 40.5473 28.3751C38.7143 30.3425 37.7978 33.0264 37.7978 36.4268V54.1331H28.3225V35.6253C28.3225 28.8245 25.5871 25.4241 20.1163 25.4241C17.1834 25.4241 14.8005 26.4078 12.9675 28.3751C11.1345 30.3425 10.218 33.0264 10.218 36.4268V54.1331H0.742676Z" fill="white"/>
<path d="M77.2217 54.1329V18.5747H86.6969V54.1329H77.2217Z" fill="white"/>
<path d="M95.749 54.1329L110.3 35.9895L95.8336 18.5747H106.832L115.546 29.796H115.715L124.598 18.5747H135.511L121.129 36.0624L135.765 54.1329H125.19L115.799 42.9117H115.715L106.24 54.1329H95.749Z" fill="white"/>
<path d="M144.226 54.1331V18.5748H153.701V23.8939H153.87C157.254 20.0078 161.512 18.0647 166.645 18.0647H167.829V27.1729C166.363 27.0757 165.404 27.0271 164.953 27.0271C161.456 27.0271 158.706 27.9865 156.704 29.9053C154.702 31.8241 153.701 34.2894 153.701 37.3012V54.1331H144.226Z" fill="white"/>
<path d="M193.125 54.7161C187.315 54.7161 182.535 53.0402 178.785 49.6883C175.034 46.3365 173.159 41.9403 173.159 36.4997C173.159 31.1562 175.048 26.7478 178.827 23.2746C182.606 19.8013 187.343 18.0647 193.04 18.0647C198.567 18.0647 202.825 19.692 205.815 22.9467L205.984 22.8738V18.5748H215.459V54.1331H206.407V49.4697L206.238 49.3969C203.192 52.943 198.821 54.7161 193.125 54.7161ZM194.647 47.2838C197.919 47.2838 200.696 46.288 202.981 44.2963C205.265 42.3046 206.407 39.7301 206.407 36.5725C206.407 33.415 205.293 30.7676 203.065 28.6302C200.837 26.4928 198.031 25.4241 194.647 25.4241C191.263 25.4241 188.443 26.4442 186.187 28.4845C183.931 30.5247 182.803 33.2207 182.803 36.5725C182.803 39.7301 183.903 42.3046 186.103 44.2963C188.302 46.288 191.15 47.2838 194.647 47.2838Z" fill="white"/>
<path d="M227.388 54.1331V18.5748H236.863V23.4567H237.033C240.529 19.862 245.126 18.0647 250.823 18.0647C255.56 18.0647 259.269 19.3034 261.948 21.7808C264.627 24.2583 265.966 28.0715 265.966 33.2207V54.1331H256.491V35.3338C256.491 31.7391 255.744 29.1888 254.249 27.6829C252.754 26.177 250.512 25.4241 247.523 25.4241C244.252 25.4241 241.658 26.3714 239.74 28.2659C237.822 30.1603 236.863 32.8321 236.863 36.281V54.1331H227.388Z" fill="white"/>
<path d="M277.556 54.1331V0.50415H287.031V34.9695L287.201 35.0423L303.952 18.5748H315.203L300.314 32.8564L315.457 54.1331H304.798L293.715 38.467L287.031 44.7334V54.1331H277.556Z" fill="white"/>
</svg>
